<svg width="128" height="57.38" viewBox="0 0 33.867 15.182" xmlns="http://www.w3.org/2000/svg"><g aria-label="E$G"><path d="M5.262 6.448h4.867l-.53 2.651H4.731Zm-.577 4.086h5.475l-.562 2.776H.521L2.705 2.393h8.874l-.561 2.776H5.76ZM15.37 13.56q-.967 0-1.856-.156-.889-.14-1.622-.39-.717-.265-1.248-.593l1.42-2.682q.608.343 1.216.577.624.218 1.232.327.624.11 1.232.11.484 0 .796-.079.327-.078.483-.218.172-.156.172-.343 0-.25-.28-.406-.282-.156-.75-.28-.452-.125-1.013-.25-.546-.14-1.108-.343-.561-.218-1.03-.546-.451-.327-.732-.826-.28-.5-.28-1.217 0-1.248.654-2.168.67-.92 1.903-1.42 1.248-.514 2.963-.514 1.217 0 2.262.25 1.06.25 1.825.701l-1.326 2.667q-.655-.405-1.435-.608-.764-.203-1.56-.203-.53 0-.889.11-.358.093-.545.265-.172.171-.172.359 0 .249.28.42.281.157.75.281.467.11 1.013.25.562.125 1.107.327.562.188 1.03.515.468.312.749.811.28.484.28 1.201 0 1.217-.67 2.137-.671.904-1.919 1.42-1.232.514-2.932.514zm-1.372 1.622.405-2.028h2.2l-.406 2.028zm2.526-12.633L16.93.52h2.199l-.406 2.028zm10.965 11.01q-1.685 0-2.948-.607-1.263-.624-1.965-1.716-.687-1.107-.687-2.558 0-1.435.5-2.636.514-1.2 1.45-2.074.936-.874 2.215-1.341 1.294-.484 2.854-.484 1.716 0 2.948.546 1.247.53 2.012 1.59L31.23 6.324q-.53-.686-1.123-.936-.593-.265-1.373-.265-.717 0-1.294.25-.577.234-.998.686-.406.437-.624 1.045-.219.608-.219 1.341 0 .64.281 1.123.297.484.827.749.546.265 1.294.265.624 0 1.248-.203.624-.218 1.279-.733l1.388 2.62q-.858.624-1.996.967-1.139.328-2.433.328zm1.341-1.855.827-4.149h3.197l-.936 4.71z" fill="#85bb65"/><path d="M4.741 5.927h4.867l-.53 2.651H4.21Zm-.577 4.086H9.64l-.562 2.776H0L2.184 1.872h8.874l-.561 2.776H5.24Zm10.684 3.026q-.967 0-1.856-.156-.889-.14-1.622-.39-.717-.265-1.248-.593l1.42-2.682q.608.343 1.216.577.624.218 1.232.327.624.11 1.232.11.484 0 .796-.079.327-.078.483-.218.172-.156.172-.343 0-.25-.28-.406-.282-.156-.75-.28-.452-.125-1.013-.25-.546-.14-1.108-.343-.561-.218-1.03-.546-.451-.327-.732-.826-.28-.5-.28-1.217 0-1.248.654-2.168.67-.92 1.903-1.42 1.248-.514 2.963-.514 1.217 0 2.262.25 1.06.25 1.825.701L19.76 5.24q-.655-.405-1.435-.608-.764-.203-1.56-.203-.53 0-.889.11-.358.093-.545.265-.172.171-.172.358 0 .25.28.422.281.156.75.28.467.11 1.013.25.562.125 1.107.327.562.188 1.03.515.468.312.748.811.281.484.281 1.201 0 1.217-.67 2.137-.671.904-1.919 1.42-1.232.514-2.932.514zm-1.372 1.622.405-2.028h2.2l-.406 2.028zm2.526-12.633L16.408 0h2.199L18.2 2.028zm10.965 11.01q-1.685 0-2.948-.607-1.263-.624-1.965-1.716-.687-1.107-.687-2.558 0-1.435.5-2.636.514-1.2 1.45-2.074.936-.874 2.215-1.341 1.294-.484 2.854-.484 1.716 0 2.948.546 1.247.53 2.012 1.59L30.71 5.803q-.53-.686-1.123-.936-.593-.265-1.373-.265-.717 0-1.294.25-.577.234-.998.686-.406.437-.624 1.045-.219.608-.219 1.341 0 .64.281 1.123.296.484.827.749.546.265 1.294.265.624 0 1.248-.203.624-.218 1.279-.733l1.388 2.62q-.858.624-1.996.967-1.139.328-2.433.328zm1.34-1.855.828-4.149h3.197l-.936 4.71z" fill="#357a46"/></g></svg>
